<svg xmlns="http://www.w3.org/2000/svg" viewBox="0 0 100 100" fill="none">
  <!-- Background -->
  <rect x="10" y="10" width="80" height="80" rx="4" fill="#1496FF" stroke="#5CB8FF" stroke-width="2"/>
  <!-- Table grid -->
  <rect x="18" y="18" width="64" height="64" rx="2" fill="white"/>
  <!-- Header row -->
  <rect x="18" y="18" width="64" height="14" rx="2" fill="#5CB8FF"/>
  <rect x="22" y="22" width="16" height="6" rx="1" fill="white"/>
  <rect x="42" y="22" width="16" height="6" rx="1" fill="white"/>
  <rect x="62" y="22" width="16" height="6" rx="1" fill="white"/>
  <!-- Row 1 -->
  <rect x="22" y="38" width="14" height="4" rx="1" fill="#5CB8FF"/>
  <rect x="42" y="38" width="14" height="4" rx="1" fill="#5CB8FF"/>
  <rect x="62" y="38" width="14" height="4" rx="1" fill="#5CB8FF"/>
  <!-- Row 2 -->
  <rect x="22" y="48" width="14" height="4" rx="1" fill="#5CB8FF"/>
  <rect x="42" y="48" width="14" height="4" rx="1" fill="#5CB8FF"/>
  <rect x="62" y="48" width="14" height="4" rx="1" fill="#5CB8FF"/>
  <!-- Row 3 -->
  <rect x="22" y="58" width="14" height="4" rx="1" fill="#5CB8FF"/>
  <rect x="42" y="58" width="14" height="4" rx="1" fill="#5CB8FF"/>
  <rect x="62" y="58" width="14" height="4" rx="1" fill="#5CB8FF"/>
  <!-- Row 4 -->
  <rect x="22" y="68" width="14" height="4" rx="1" fill="#5CB8FF"/>
  <rect x="42" y="68" width="14" height="4" rx="1" fill="#5CB8FF"/>
  <rect x="62" y="68" width="14" height="4" rx="1" fill="#5CB8FF"/>
  <!-- Grid lines -->
  <line x1="39" y1="32" x2="39" y2="82" stroke="#5CB8FF" stroke-width="0.5" opacity="0.3"/>
  <line x1="59" y1="32" x2="59" y2="82" stroke="#5CB8FF" stroke-width="0.5" opacity="0.3"/>
</svg>
